<svg id="Layer_1" data-name="Layer 1" xmlns="http://www.w3.org/2000/svg" viewBox="0 0 54.99 38.22"><defs><style>.cls-1{fill:#fff;}</style></defs><polygon class="cls-1" points="14.67 0 14.67 8.05 54.99 8.05 54.99 0 14.67 0 14.67 0"/><polygon class="cls-1" points="14.67 15.09 14.67 23.14 54.99 23.14 54.99 15.09 14.67 15.09 14.67 15.09"/><polygon class="cls-1" points="14.67 30.18 14.67 38.22 54.99 38.22 54.99 30.18 14.67 30.18 14.67 30.18"/><polygon class="cls-1" points="0 15.09 0 23.14 8.38 23.14 8.38 15.09 0 15.09 0 15.09"/><polygon class="cls-1" points="0 0 0 8.05 8.38 8.05 8.38 0 0 0 0 0"/><polygon class="cls-1" points="0 30.18 0 38.22 8.38 38.22 8.38 30.18 0 30.18 0 30.18"/></svg>